<?xml version="1.0" encoding="utf-8"?>
<!-- Generator: Adobe Illustrator 23.0.1, SVG Export Plug-In . SVG Version: 6.00 Build 0)  -->
<svg version="1.1" id="Layer_1" xmlns="http://www.w3.org/2000/svg" xmlns:xlink="http://www.w3.org/1999/xlink" x="0px" y="0px"
	 viewBox="0 0 739.03 341.58" style="enable-background:new 0 0 739.03 341.58;" xml:space="preserve">
<style type="text/css">
	.st0{fill:#FFFFFF;}
</style>
<g>
	<g>
		<path class="st0" d="M177.64,105.09c1.84,0.31,3.67,0.5,5.51,0.62c1.84,0.16,3.67,0.23,5.51,0.25c1.84,0.04,3.67,0.02,5.51-0.11
			c1.84-0.12,3.67-0.36,5.51-0.77l-1.22,1.22v-3.39v-1.32l1.22,0.1c1.51,0.12,3.01,0.23,4.52,0.28c1.51,0.08,3.01,0.07,4.52,0.1
			c1.51,0.04,3.01-0.03,4.52-0.05c1.51-0.08,3.01-0.15,4.52-0.33l-1.22,1.22l0,0v-6.77v-1.22h1.22h3.86l-1.22,1.22V93.1v-1.22h1.22
			h14.62h1.22v1.22v3.22l-1.22-1.22h1.04l-1.22,1.22v-9.15v-1.22h1.22h5.9l-1.22,1.22v0l-0.38-10.67
			c-0.13-3.56-0.16-7.11-0.24-10.67c-0.19-7.11-0.17-14.23-0.23-21.34c-0.1-7.11,0.05-14.23,0.09-21.34l0.28-10.67
			c0.13-3.56,0.27-7.11,0.48-10.67l0.11-1.8l1.52,0.65l0,0l57.29,20.42l0.81,0.29v0.86v0c-0.16,5.51-0.41,11.02-0.48,16.54
			c-0.11,5.51-0.21,11.02-0.22,16.53l-0.05,8.27c-0.03,2.76-0.04,5.51,0.02,8.27c0.03,2.76,0.06,5.51,0.21,8.27
			c0.1,2.76,0.27,5.51,0.52,8.27l-1.22-1.22h0h8.99l-1.22,1.22v-4.23V82.9h1.22h20.07h1.22v1.22v3.22l-1.22-1.22h8.7L337,87.34v0
			c-0.54-4.3-0.5-8.61-0.46-12.91l0.1-12.91l0.1-12.91c0.04-4.3,0.18-8.61,0.26-12.91l0.02-0.86l0.76-0.28h0l2.96-1.15
			c1.05-0.4,2.07-0.72,3.11-1.03c2.08-0.6,4.17-1.09,6.29-1.48c4.24-0.78,8.54-1.17,12.85-1.13c4.3,0.04,8.62,0.49,12.84,1.43
			c2.11,0.47,4.19,1.06,6.24,1.76c1.02,0.35,2.03,0.74,3.03,1.14l2.93,1.2h0l0.28,0l0.47,1.13c1.26,3.02,1.17,6.03,1.14,9.05
			l-0.06,9.05l-0.13,18.1l-0.35,18.1c-0.18,6.03-0.33,12.07-0.6,18.1v0l-1.22-1.22c1.79,0.7,3.58,0.76,5.37,0.72l5.37-0.08
			c1.79-0.02,3.58-0.15,5.37-0.22c1.79-0.09,3.58-0.23,5.37-0.42h0l-1.22,1.22V84.12v0l0.27-1.4l0.95,0.18
			c4.73,0.88,9.46,0.93,14.19,0.85c2.36-0.03,4.73-0.11,7.09-0.26c2.36-0.11,4.73-0.3,7.09-0.59h0l-1.22,1.22v-9.48v0l-0.15-1.03
			l1.37-0.19c1.04-0.14,2.08-0.25,3.12-0.29l1.56-0.09l1.56-0.01c2.08-0.04,4.16,0.04,6.24,0.2c2.08,0.16,4.16,0.4,6.24,0.46
			c2.08,0.11,4.16,0.1,6.24-0.27h0l-1.22,1.22V61.26v0l0.67-1.48l0.55,0.26c1.09,0.51,2.18,0.77,3.27,0.95
			c1.09,0.19,2.18,0.25,3.27,0.27c2.18-0.03,4.37-0.02,6.55-0.12c2.18-0.07,4.37-0.19,6.55-0.36c1.09-0.08,2.18-0.19,3.27-0.32
			c1.09-0.12,2.18-0.23,3.27-0.41l0,0l1.05-0.1l0.17,1.32c0.18,1.36,0.16,2.72,0.15,4.09c-0.03,1.36-0.29,2.72-0.32,4.09
			c-0.04,2.72,0.01,5.45,0.01,8.17l0.03,8.17c-0.01,2.72,0.1,5.45,0.14,8.17v0l-1.22-1.22c2.44,0.15,4.88,0.25,7.32,0.28
			c2.44,0.05,4.88,0.03,7.32-0.01l7.32-0.08c2.44,0,4.88-0.11,7.32-0.18h0h1.22v1.22v12.02l-1.22-1.22h5.35l-1.22,1.22V77.69v0
			l0.57-1.47l0.65,0.25c4.4,1.67,8.79,1.12,13.19,1.17l13.19-0.13l13.19-0.38c2.2-0.05,4.4-0.2,6.59-0.29
			c2.2-0.1,4.4-0.21,6.59-0.37h0h1.22v1.22v0.17l-1.22-1.22h4.45l-1.22,1.22V55.67v0l0.07-1.28l1.15,0.06
			c1.74,0.08,3.48,0.2,5.22,0.26l5.22,0.15l5.22,0.05c0.87,0,1.74,0.04,2.61,0c0.44-0.02,0.87-0.07,1.31-0.15
			c0.43-0.06,0.87-0.16,1.3-0.3h0l-1.22,1.22V41.78v-1.22h1.22h30.73h0l1.37,0.2l-0.15,1.02c-0.31,2.13-0.53,4.26-0.65,6.39
			c-0.17,2.13-0.26,4.26-0.3,6.39c-0.03,2.13-0.07,4.26,0.07,6.39c0.12,2.13,0.38,4.26,0.88,6.39v0l-1.22-1.22h13.85l0,0l1.44,0.37
			l-0.22,0.85c-0.82,3.2-0.93,6.41-0.89,9.61l0.1,9.61c0.01,3.2,0.19,6.41,0.27,9.61c0.04,1.6,0.13,3.2,0.22,4.81
			c0.08,1.6,0.17,3.2,0.3,4.81v0l-1.22-1.22h12.04l-1.22,1.21l0.11-15.92v0l0.42-1.42l0.8,0.21c2.71,0.71,5.42,0.5,8.12,0.49
			l8.12-0.09l8.12-0.2c2.71-0.08,5.41-0.22,8.12-0.33l0,0l1.23,0v1.23v5.72l-1.22-1.22h4.24l-1.22,1.22l-0.04-11.16l0-1.5l1.22,0.28
			c1.99,0.45,3.98,0.68,5.97,0.78c1.99,0.12,3.98,0.07,5.97,0.03c1.99-0.05,3.98-0.14,5.97-0.3c1.99-0.12,3.98-0.32,5.97-0.61
			l0.01,2.44c-1.99-0.34-3.98-0.56-5.97-0.73c-1.99-0.14-3.98-0.24-5.97-0.28l-2.98-0.03c-1,0.03-1.99,0.03-2.98,0.12
			c-1.99,0.16-3.98,0.41-5.97,1.01l1.22-1.22l0.04,11.16l0,1.23h-1.22h-4.24h-1.22v-1.22v-5.72l1.23,1.22l0,0
			c-2.71-0.09-5.42-0.2-8.12-0.26l-8.12-0.14l-8.12-0.03c-2.71,0.01-5.42-0.18-8.12,0.56l1.22-1.21l0,0l-0.11,15.92l-0.01,1.21
			h-1.21H645.9h-1.22v-1.22v0c0.13-1.6,0.21-3.2,0.3-4.81c0.09-1.6,0.18-3.2,0.22-4.81c0.08-3.2,0.26-6.41,0.27-9.61l0.1-9.61
			c0.03-3.2-0.08-6.41-0.89-9.61l1.22,1.22l0,0h-13.85h-1.22v-1.22v0c0.41-2.13,0.62-4.26,0.71-6.39c0.12-2.13,0.08-4.26,0.03-6.39
			c-0.03-2.13-0.07-4.26-0.21-6.39c-0.1-2.13-0.28-4.26-0.53-6.39l1.22,1.22h0h-30.73l1.22-1.22v13.89v1.22h-1.22h0
			c-0.43-0.14-0.87-0.25-1.3-0.3c-0.44-0.08-0.87-0.13-1.31-0.15c-0.87-0.04-1.74-0.01-2.61,0l-5.22,0.05l-5.22,0.15
			c-1.74,0.06-3.48,0.18-5.22,0.26l1.22-1.22v0v22.19v1.22h-1.22h-4.45h-1.22v-1.22v-0.17l1.22,1.22h0c-2.2-0.16-4.4-0.27-6.59-0.37
			c-2.2-0.09-4.4-0.24-6.59-0.29l-13.19-0.38l-13.19-0.13c-4.4,0.05-8.79-0.51-13.19,1.17l1.22-1.22v0v28.28v1.22h-1.22h-5.35h-1.22
			v-1.22V93.95l1.22,1.22h0c-2.44-0.08-4.88-0.18-7.32-0.19l-7.32-0.08c-2.44-0.04-4.88-0.06-7.32-0.01
			c-2.44,0.02-4.88,0.12-7.32,0.28l-1.15,0.07l-0.07-1.29v0c0.04-2.72,0.15-5.45,0.14-8.17l0.03-8.17c0-2.72,0.05-5.45,0.01-8.17
			c-0.03-1.36-0.3-2.72-0.32-4.09c-0.01-1.36-0.03-2.72,0.15-4.09l1.22,1.22l0,0c-1.09-0.18-2.18-0.29-3.27-0.41
			c-1.09-0.13-2.18-0.24-3.27-0.32c-2.18-0.17-4.37-0.3-6.55-0.36c-2.18-0.1-4.37-0.09-6.55-0.12c-1.09,0.02-2.18,0.07-3.27,0.27
			c-1.09,0.18-2.18,0.44-3.27,0.95l1.22-1.22v0v13.38v1.22h-1.22h0c-2.08-0.38-4.16-0.38-6.24-0.27c-2.08,0.06-4.16,0.31-6.24,0.46
			c-2.08,0.16-4.16,0.25-6.24,0.2l-1.56-0.01l-1.56-0.09c-1.04-0.05-2.08-0.15-3.12-0.29l1.22-1.22v0v9.48v1.22h-1.22h0
			c-2.36-0.29-4.73-0.48-7.09-0.59c-2.37-0.15-4.73-0.23-7.09-0.26c-4.73-0.08-9.46-0.02-14.19,0.85l1.22-1.22v0v24.73v1.22h-1.22h0
			c-1.79-0.18-3.58-0.33-5.37-0.42c-1.79-0.07-3.58-0.21-5.37-0.22l-5.37-0.08c-1.79-0.04-3.58,0.03-5.37,0.72l-0.63,0.25
			l-0.59-1.47v0c-0.28-6.03-0.42-12.07-0.6-18.1l-0.35-18.1l-0.13-18.1l-0.06-9.05c-0.04-3.02-0.12-6.03,1.14-9.05l0.76,1.13l0,0
			l-2.93-1.2c-0.96-0.39-1.92-0.76-2.9-1.1c-1.95-0.67-3.95-1.23-5.97-1.68c-4.04-0.9-8.18-1.33-12.33-1.37
			c-4.14-0.04-8.3,0.34-12.38,1.09c-2.04,0.38-4.07,0.85-6.05,1.42c-0.99,0.29-1.98,0.6-2.91,0.96l-2.96,1.15h0l0.78-1.14
			c0.08,4.3,0.22,8.61,0.26,12.91l0.1,12.91l0.1,12.91c0.04,4.3,0.08,8.61-0.46,12.91v0v1.22h-1.22h-8.7h-1.22v-1.22v-3.22
			l1.22,1.22h-20.07l1.22-1.22v4.23v1.22h-1.22h-8.99h0l-1.32-0.12l0.1-1.1c0.25-2.76,0.42-5.51,0.52-8.27
			c0.15-2.76,0.17-5.51,0.21-8.27c0.06-2.76,0.05-5.51,0.02-8.27l-0.05-8.27c-0.01-5.51-0.11-11.02-0.22-16.53
			c-0.06-5.51-0.31-11.02-0.48-16.54v0l0.81,1.15L242.76,2.95l0,0l1.63-1.15c0.22,3.56,0.36,7.11,0.48,10.67l0.28,10.67
			c0.04,7.11,0.19,14.23,0.09,21.34c-0.06,7.11-0.04,14.23-0.23,21.34c-0.08,3.56-0.11,7.11-0.24,10.67l-0.38,10.67v0v1.22h-1.22
			h-5.9l1.22-1.22v9.15v1.22h-1.22h-1.04H235v-1.22V93.1l1.22,1.22H221.6l1.22-1.22v3.05v1.22h-1.22h-3.86l1.22-1.22v6.77l0,0
			l-0.16,1.35l-1.06-0.13c-1.51-0.18-3.01-0.25-4.52-0.33c-1.51-0.01-3.01-0.09-4.52-0.05c-1.51,0.03-3.01,0.01-4.52,0.1
			c-1.51,0.05-3.01,0.16-4.52,0.28l1.22-1.22v3.39v1.49l-1.22-0.27c-1.84-0.41-3.67-0.65-5.51-0.77c-1.84-0.12-3.67-0.14-5.51-0.11
			c-1.84,0.02-3.67,0.09-5.51,0.25c-1.84,0.12-3.67,0.31-5.51,0.62V105.09z"/>
	</g>
	<g>
		<path class="st0" d="M701.63,155.34c-8.85-6.33-18.55-11.48-28.86-15.11c-5.15-1.81-10.41-3.35-15.79-4.4
			c-5.37-1.04-10.82-1.72-16.29-2.04c-5.47-0.31-10.96-0.27-16.43,0.13c-5.46,0.48-10.91,1.24-16.25,2.46
			c-5.36,1.16-10.6,2.8-15.71,4.72c-5.1,1.88-10.13,4.25-14.65,6.99l0.08-0.05l-0.22,0.12l-2.54,1.38l-0.8,0.44l-1.06-0.58
			c-8.66-6.2-18.16-11.32-28.24-14.95c-5.04-1.82-10.19-3.37-15.45-4.44c-5.26-1.07-10.6-1.77-15.96-2.11
			c-5.36-0.34-10.75-0.32-16.12,0.06c-5.36,0.46-10.7,1.21-15.93,2.43c-5.25,1.16-10.36,2.85-15.36,4.77
			c-1.25,0.49-2.49,0.99-3.71,1.52c-1.22,0.56-2.42,1.13-3.61,1.73c-2.36,1.19-4.77,2.48-6.85,3.92l-1,0.69l-1.05-0.74
			c-8.88-6.24-18.61-11.33-28.91-14.92c-5.15-1.79-10.41-3.3-15.77-4.33c-5.36-1.04-10.8-1.7-16.25-2.01
			c-5.46-0.3-10.94-0.26-16.39,0.16c-5.45,0.48-10.87,1.31-16.21,2.46c-5.36,1.1-10.58,2.78-15.7,4.64
			c-2.56,0.93-5.07,1.99-7.53,3.15c-2.44,1.15-4.92,2.4-7.1,3.78l-1.01,0.64l-1-0.71c-4.43-3.13-9.09-5.95-13.92-8.46
			c-2.41-1.26-4.87-2.44-7.36-3.53c-2.5-1.08-5.05-2.06-7.62-2.96c-10.29-3.6-21.1-5.88-32.03-6.43
			c-10.92-0.59-21.95,0.18-32.68,2.42c-2.68,0.57-5.34,1.22-7.97,2.01c-1.31,0.39-2.62,0.79-3.92,1.23
			c-1.29,0.46-2.57,0.93-3.85,1.43c-2.54,1-5.07,2.03-7.52,3.24c-2.41,1.24-4.88,2.51-7.01,3.99l-1.9-3.41
			c2.72-1.11,5.27-2.09,7.93-2.97c2.64-0.89,5.27-1.79,7.93-2.54c1.33-0.39,2.67-0.75,4.01-1.09c1.33-0.36,2.67-0.72,4.01-1.05
			c2.69-0.64,5.38-1.26,8.08-1.8c10.81-2.19,21.89-3.24,32.94-2.72c11.03,0.54,22.04,2.35,32.64,5.67c2.64,0.83,5.27,1.74,7.86,2.75
			c2.6,0.98,5.17,2.04,7.7,3.19c5.07,2.28,9.99,4.92,14.79,7.75l-2.01-0.07c2.5-1.52,4.98-2.73,7.54-3.92
			c2.55-1.18,5.14-2.25,7.78-3.2c5.28-1.89,10.65-3.56,16.16-4.7c5.49-1.17,11.06-2.02,16.67-2.51c5.61-0.44,11.25-0.48,16.87-0.18
			c5.62,0.31,11.22,0.99,16.75,2.05c5.53,1.06,10.96,2.59,16.27,4.42c10.64,3.64,20.65,8.92,29.85,15.22l-2.04-0.05
			c1.33-0.64,2.58-1.11,3.87-1.65c1.27-0.52,2.56-1.01,3.84-1.48c1.29-0.46,2.58-0.9,3.88-1.32c1.29-0.44,2.58-0.86,3.89-1.26
			c5.2-1.62,10.5-2.8,15.81-3.85c5.33-0.98,10.69-1.76,16.08-2.14c5.39-0.45,10.81-0.56,16.22-0.29c5.41,0.27,10.8,0.9,16.13,1.9
			c5.33,0.99,10.62,2.23,15.8,3.88c10.36,3.31,20.33,7.86,29.78,13.38l0,0l-1.86-0.14l2.71-0.99l-0.13,0.07
			c2.64-1.22,5.19-2.21,7.84-3.14c2.64-0.9,5.25-1.83,7.91-2.61c5.31-1.6,10.7-2.83,16.12-3.88c5.43-0.99,10.89-1.8,16.39-2.19
			c5.49-0.48,11.02-0.6,16.54-0.36c5.51,0.24,11.02,0.84,16.45,1.82c5.44,0.97,10.84,2.19,16.14,3.84
			c10.58,3.3,20.78,7.91,30.39,13.53L701.63,155.34z"/>
	</g>
	<g>
		<path class="st0" d="M11.3,64.18v173.24c-5.76-6.83-9.6-18.13-9.6-28.58V89.35c0-8.74-0.64-17.28-1.71-25.17H11.3z M18.77,64.18
			h54.18c-1.07,12.58-1.49,22.39-1.49,29.43v149.78c0,2.13,0.43,3.41,1.07,4.05c1.49,0.85,5.12,1.28,10.66,1.28
			c10.02,0,19.84-1.49,29.22-4.69c13.44-4.48,21.97-12.58,26.23-23.46c2.13-5.33,3.84-12.16,4.91-20.47
			c0.64-4.91,0.85-11.94,0.85-20.69V97.24c0-10.88-0.43-20.48-1.49-28.58c-0.21-1.07-0.21-2.13-0.21-2.77
			c0-2.35,0.85-3.41,5.97-3.41c6.61,0,7.04,0.85,7.04,3.2c0,0.64,0,1.71-0.21,2.99c-1.07,7.04-1.49,16.42-1.49,28.58v83.02
			c0,14.72-1.07,26.23-2.99,34.98c-4.91,19.62-16,32.63-43.08,39.88c-8.96,1.92-19.19,2.99-30.5,2.99
			c-29.65,0-49.05-5.97-58.65-14.5V64.18z"/>
		<path class="st0" d="M181.38,158.2v93.93h-7.1c0.66-5.39,0.92-11.31,0.92-17.76v-58.55c0-6.45-0.26-12.23-0.92-17.63H181.38z
			 M185.85,158.2h37.76c6.58,0,11.71,0.26,15.26,0.79c10,1.71,17.1,5.26,23.55,12.5c6.71,7.24,10.13,16.97,10.13,25.92
			c0,6.71-1.71,13.16-5.26,19.6c-3.42,6.31-8.42,11.18-15,14.6c-6.45,3.42-13.81,5.13-21.84,5.13c-3.81,0-8.29-0.53-13.29-1.45
			l0.66,12.37c0,1.45,0.13,3.03,0.26,4.47h-32.23V158.2z M217.03,230.16c4.74,0.92,9.74,1.31,15.13,1.31
			c6.18,0,11.58-1.18,15.92-3.55c11.71-5.92,18.42-17.63,18.42-30.65c0-12.5-6.32-22.5-15.79-28.29
			c-5.92-3.82-14.87-5.66-26.84-5.66c-1.71,0-3.82,0-6.18,0.13c-0.4,8.42-0.66,13.29-0.66,14.6V230.16z"/>
		<path class="st0" d="M309.51,158.2v93.93h-7.24c0.66-5.39,0.92-11.31,0.92-17.76v-58.55c0-4.08-0.13-8.29-0.39-12.63
			c-11.71,0-19.34,0.26-22.76,0.66c-1.45,0.13-2.5,0.26-3.16,0.26c-1.18,0-1.71-0.39-1.71-3.03c0-1.05,0.26-1.84,0.79-2.24
			c0.39-0.4,1.05-0.66,1.97-0.66H309.51z M313.85,158.2h55.91c1.97,0,3.16,0.13,3.55,0.53c0.53,0.53,0.79,1.45,0.79,2.76
			c0,1.71-0.79,2.63-1.71,2.63c0,0-1.32-0.13-3.82-0.26c-4.87-0.39-12.37-0.66-22.76-0.66c-0.4,8.81-0.66,13.81-0.66,14.87v54.33
			l0.39,9.08c0.13,5.13,0.39,8.68,0.66,10.66h-32.36V158.2z"/>
		<path class="st0" d="M386.07,232.53c-4.34-5.79-8.16-16.97-8.16-27.1c0-9.87,3.42-20.79,8.16-27.76V232.53z M390.55,171.88
			c3.81-3.95,7.37-6.97,10.66-9.21c3.29-2.24,7.5-4.21,12.37-5.66c4.87-1.45,10.13-2.24,15.66-2.24c9.34,0,18.02,2.24,26.05,6.71
			c8.02,4.34,14.21,10.52,18.55,18.55c4.47,7.89,6.71,16.18,6.71,24.86c0,8.81-2.24,17.1-6.71,25.13
			c-4.47,8.02-10.66,14.21-18.68,18.68c-7.89,4.34-16.58,6.58-26.18,6.58c-15.66,0-27.5-5.79-38.41-16.84V171.88z M421.73,244.9
			c0,3.68,0.79,4.74,7.5,4.74c12.76,0,23.42-4.34,32.23-13.15c8.81-8.82,13.29-19.34,13.29-31.71c0-6.84-1.45-13.29-4.34-19.34
			c-6.32-13.95-22.5-25.52-40.65-25.39c-2.89,0-4.87,0.26-6.05,0.79c-0.79,0.39-1.32,0.79-1.58,1.45c-0.26,0.53-0.39,1.71-0.39,3.55
			V244.9z"/>
		<path class="st0" d="M494.34,158.2l41.18,94.2c-1.19,2.1-2.24,3.16-3.42,3.16c-0.66,0-1.32-0.26-1.84-0.66
			c-0.39-0.26-0.79-1.05-1.45-2.5l-36.18-83.41c-0.4-0.79-2.11-4.34-5.39-10.79H494.34z M554.07,207.53l8.68-15.79l34.2,60.12
			c-0.79,1.45-1.45,2.37-1.84,2.76c-0.66,0.66-1.19,0.92-1.84,0.92c-0.53,0-1.05-0.26-1.58-0.66c-0.13-0.13-0.53-0.79-1.18-1.84
			l-27.63-49.47l-24.6,43.81l-39.07-89.2h33.42L554.07,207.53z M610.9,205.56l15.79-36.84c1.18-2.89,1.97-5.53,2.63-7.89
			c0.66-3.03,1.84-3.68,4.08-3.68c1.71,0,3.03,0.26,3.95,0.92c0.53,0.26,0.79,0.53,0.79,0.92c0,0.53-0.13,1.18-0.53,1.97
			c-2.5,4.08-5.13,9.47-8.03,16.05l-30.52,69.73l-34.07-59.86l15.39-28.29c0.39-0.66,0.66-1.18,0.79-1.32
			c0.39-0.26,0.66-0.4,1.05-0.4c0.66,0,1.32,0.53,1.97,1.58L610.9,205.56z"/>
		<path class="st0" d="M645.76,196.61l90.64,52.23c0.13,0.39,0.13,0.79,0.13,1.05c0,2.76-1.05,3.55-2.24,3.55
			c-0.92,0-2.37-0.53-4.47-1.71l-78.02-44.99v26.84c0,0.92,0.13,4.87,0.26,11.84c0.13,4.74,0.39,5.39,0.39,6.05
			c0,1.05-0.39,1.58-3.03,1.58c-4.74,0-4.87-0.66-4.87-1.84c0-0.4,0-0.92,0.13-1.58c0.13-0.66,0.53-6.18,1.05-16.31V196.61z
			 M730.62,203.59v-26.05c0-2.89-0.13-6.05-0.26-9.34c-0.13-3.42-0.39-6.05-0.53-7.89c-0.13-0.66-0.13-1.05-0.13-1.32
			c0-1.18,0.79-1.84,4.08-1.84c1.58,0,2.63,0.13,3.16,0.53c0.4,0.26,0.53,0.66,0.53,1.18c0,0.13-0.13,2.24-0.4,6.31
			c-0.26,4.21-0.39,8.29-0.53,12.1v66.57l-90.78-52.49v-24.73l-0.13-6.45c0-1.97,0.92-3.03,3.03-3.03c0.66,0,1.71,0.39,3.03,1.05
			L730.62,203.59z"/>
	</g>
	<g>
		<g>
			<path class="st0" d="M12.02,333.28h15.4v5.78H5.8v-55.82h6.22V333.28z"/>
			<path class="st0" d="M39.93,339.06h-6.22v-55.82h6.22V339.06z"/>
			<path class="st0" d="M58.51,280.05l20.29,46.87l20.36-46.87l11.33,59.01h-6.37l-7.18-37.76h-0.15L78.8,341.35L60.88,301.3h-0.15
				l-7.18,37.76h-6.37L58.51,280.05z"/>
			<path class="st0" d="M172.98,311.22c0,16.07-13.18,28.8-29.1,28.8c-15.92,0-29.1-12.74-29.1-28.8c0-15.99,13.18-28.95,29.1-28.95
				C159.8,282.27,172.98,295.23,172.98,311.22z M121,311.15c0,12.59,10.22,23.1,22.88,23.1c12.66,0,22.88-10.51,22.88-23.1
				c0-12.66-10.07-23.1-22.88-23.1C131.07,288.05,121,298.49,121,311.15z"/>
			<path class="st0" d="M212.59,323.21l-6.74,15.84h-6.81l25.77-58.49l25.1,58.49h-6.88l-6.59-15.84H212.59z M224.66,295.08
				l-9.55,22.36h18.88L224.66,295.08z"/>
			<path class="st0" d="M256.35,280.87l43.53,45.61v-43.24h6.22v58.34l-43.53-45.53v43.02h-6.22V280.87z"/>
			<path class="st0" d="M317.72,283.24h10.51c8.37,0,15.18,1.11,21.77,6.74c6.37,5.48,9.26,12.96,9.26,21.25
				c0,8.15-2.96,15.33-9.11,20.81c-6.66,5.92-13.33,7.03-22.06,7.03h-10.37V283.24z M328.46,333.28c6.81,0,12.51-0.96,17.62-5.77
				c4.59-4.29,6.96-10.14,6.96-16.36c0-6.37-2.44-12.51-7.26-16.73c-5.11-4.52-10.73-5.4-17.32-5.4h-4.52v44.27H328.46z"/>
			<path class="st0" d="M396.94,339.06h-6.22v-55.82h9.18c4.81,0,9.77,0.15,13.84,2.96c4.15,2.89,6.29,7.77,6.29,12.73
				c0,4.52-1.85,9.11-5.33,11.99c-3.78,3.11-8.59,3.7-13.25,3.7h-4.52V339.06z M396.94,308.85h4.15c6.89,0,12.73-2.07,12.73-10.07
				c0-9.11-7.33-9.77-14.58-9.77h-2.29V308.85z"/>
			<path class="st0" d="M430.42,323.21l-6.74,15.84h-6.81l25.76-58.49l25.1,58.49h-6.89l-6.59-15.84H430.42z M442.49,295.08
				l-9.55,22.36h18.88L442.49,295.08z"/>
			<path class="st0" d="M480.03,339.06h-6.22v-55.82h8.07c10.59,0,20.44,2.81,20.44,15.4c0,8.59-5.41,14.66-13.99,15.4l17.77,25.02
				h-7.62l-16.88-24.51h-1.55V339.06z M480.03,309.07h1.92c7.03,0,14.14-1.33,14.14-10c0-9.18-6.74-10.07-14.21-10.07h-1.85V309.07z
				"/>
			<path class="st0" d="M527.28,339.06h-6.22v-50.05h-13.47v-5.77h33.32v5.77h-13.62V339.06z"/>
			<path class="st0" d="M542.23,283.24h7.18l14.21,24.88l14.21-24.88h7.18l-18.29,31.84v23.99h-6.22v-23.99L542.23,283.24z"/>
			<path class="st0" d="M613.98,283.24h9.18c10.14,0,18.66,3.7,18.66,15.1c0,4.52-1.7,8.37-5.48,10.88
				c6.66,1.63,10.59,7.63,10.59,14.29c0,11.1-8.96,15.55-19.99,15.55h-12.96V283.24z M620.2,307.82h2.37
				c7.03,0,13.03-0.82,13.03-9.48c0-8.44-5.33-9.33-12.96-9.33h-2.44V307.82z M620.2,333.28h6.22c6.96,0,14.29-1.7,14.29-10.22
				c0-8.66-8.29-9.92-15.1-9.92h-5.4V333.28z"/>
			<path class="st0" d="M662.1,316.48c0,4.15-0.15,8.88,2.44,12.44c2.44,3.41,7.18,5.33,11.25,5.33c4,0,8.37-1.85,10.96-4.96
				c2.96-3.55,2.74-8.44,2.74-12.81v-33.24h6.22v34.95c0,6.07-0.45,10.88-4.89,15.47c-3.85,4.15-9.4,6.37-15.03,6.37
				c-5.26,0-10.66-2-14.44-5.7c-4.88-4.66-5.48-9.77-5.48-16.14v-34.95h6.22V316.48z"/>
			<path class="st0" d="M732.07,294.12c-2.22-3.85-4.89-6.07-9.62-6.07c-4.96,0-9.25,3.55-9.25,8.66c0,4.81,4.96,7.03,8.74,8.74
				l3.7,1.63c7.26,3.18,13.4,6.81,13.4,15.7c0,9.77-7.85,17.25-17.55,17.25c-8.96,0-15.62-5.78-17.4-14.44l6.07-1.7
				c0.81,5.7,5.18,10.37,11.18,10.37c6,0,11.48-4.59,11.48-10.88c0-6.52-5.11-8.74-10.29-11.11l-3.41-1.48
				c-6.51-2.96-12.14-6.29-12.14-14.29c0-8.66,7.33-14.21,15.62-14.21c6.22,0,11.47,3.18,14.44,8.66L732.07,294.12z"/>
		</g>
	</g>
</g>
</svg>
